<svg width="31" height="20" viewBox="0 0 31 20" fill="none" xmlns="http://www.w3.org/2000/svg">
<path d="M10 9.5C9.72386 9.5 9.5 9.72386 9.5 10C9.5 10.2761 9.72386 10.5 10 10.5V9.5ZM21.3536 10.3536C21.5488 10.1583 21.5488 9.84171 21.3536 9.64645L18.1716 6.46447C17.9763 6.2692 17.6597 6.2692 17.4645 6.46447C17.2692 6.65973 17.2692 6.97631 17.4645 7.17157L20.2929 10L17.4645 12.8284C17.2692 13.0237 17.2692 13.3403 17.4645 13.5355C17.6597 13.7308 17.9763 13.7308 18.1716 13.5355L21.3536 10.3536ZM10 10.5H21V9.5H10V10.5Z" fill="white"/>
</svg>
